<svg preserveAspectRatio="none" width="100%" height="100%" overflow="visible" style="display: block;" viewBox="0 0 15.997 15.997" fill="none" xmlns="http://www.w3.org/2000/svg">
<g id="Icon" clip-path="url(#clip0_0_72)">
<path id="Vector" d="M7.99851 4.6658V13.9974" stroke="var(--stroke-0, white)" stroke-opacity="0.5" stroke-width="1.19978" stroke-linecap="round" stroke-linejoin="round"/>
<path id="Vector_2" d="M1.99963 11.9978C1.82285 11.9978 1.65331 11.9275 1.52831 11.8025C1.40331 11.6775 1.33308 11.508 1.33308 11.3312V2.66617C1.33308 2.48939 1.40331 2.31985 1.52831 2.19485C1.65331 2.06985 1.82285 1.99963 1.99963 1.99963H5.33234C6.03945 1.99963 6.7176 2.28053 7.21761 2.78053C7.71761 3.28053 7.99851 3.95869 7.99851 4.6658C7.99851 3.95869 8.27941 3.28053 8.77941 2.78053C9.27942 2.28053 9.95757 1.99963 10.6647 1.99963H13.9974C14.1742 1.99963 14.3437 2.06985 14.4687 2.19485C14.5937 2.31985 14.6639 2.48939 14.6639 2.66617V11.3312C14.6639 11.508 14.5937 11.6775 14.4687 11.8025C14.3437 11.9275 14.1742 11.9978 13.9974 11.9978H9.99814C9.4678 11.9978 8.95919 12.2084 8.58419 12.5834C8.20919 12.9584 7.99851 13.4671 7.99851 13.9974C7.99851 13.4671 7.78784 12.9584 7.41283 12.5834C7.03783 12.2084 6.52922 11.9978 5.99888 11.9978H1.99963Z" stroke="var(--stroke-0, white)" stroke-opacity="0.5" stroke-width="1.19978" stroke-linecap="round" stroke-linejoin="round"/>
</g>
<defs>
<clipPath id="clip0_0_72">
<rect width="15.997" height="15.997" fill="white"/>
</clipPath>
</defs>
</svg>
