<svg preserveAspectRatio="none" width="100%" height="100%" overflow="visible" style="display: block;" viewBox="0 0 13.9927 13.9927" fill="none" xmlns="http://www.w3.org/2000/svg">
<g id="Icon">
<path id="Vector" d="M11.6606 4.66424H2.33212C2.01012 4.66424 1.74909 4.92527 1.74909 5.24727V6.41333C1.74909 6.73532 2.01012 6.99636 2.33212 6.99636H11.6606C11.9826 6.99636 12.2436 6.73532 12.2436 6.41333V5.24727C12.2436 4.92527 11.9826 4.66424 11.6606 4.66424Z" stroke="var(--stroke-0, #B5864A)" stroke-width="1.04945" stroke-linecap="round" stroke-linejoin="round"/>
<path id="Vector_2" d="M6.99636 4.66424V12.2436" stroke="var(--stroke-0, #B5864A)" stroke-width="1.04945" stroke-linecap="round" stroke-linejoin="round"/>
<path id="Vector_3" d="M11.0776 6.99636V11.0776C11.0776 11.3868 10.9547 11.6834 10.736 11.9021C10.5174 12.1208 10.2208 12.2436 9.9115 12.2436H4.08121C3.77195 12.2436 3.47536 12.1208 3.25668 11.9021C3.038 11.6834 2.91515 11.3868 2.91515 11.0776V6.99636" stroke="var(--stroke-0, #B5864A)" stroke-width="1.04945" stroke-linecap="round" stroke-linejoin="round"/>
<path id="Vector_4" d="M4.37272 4.66424C3.98615 4.66424 3.61541 4.51067 3.34206 4.23732C3.06871 3.96398 2.91515 3.59324 2.91515 3.20666C2.91515 2.82009 3.06871 2.44935 3.34206 2.176C3.61541 1.90265 3.98615 1.74909 4.37272 1.74909C4.93516 1.73929 5.48632 2.01219 5.95433 2.53219C6.42233 3.0522 6.78546 3.79518 6.99636 4.66424C7.20725 3.79518 7.57038 3.0522 8.03838 2.53219C8.50639 2.01219 9.05755 1.73929 9.61999 1.74909C10.0066 1.74909 10.3773 1.90265 10.6506 2.176C10.924 2.44935 11.0776 2.82009 11.0776 3.20666C11.0776 3.59324 10.924 3.96398 10.6506 4.23732C10.3773 4.51067 10.0066 4.66424 9.61999 4.66424" stroke="var(--stroke-0, #B5864A)" stroke-width="1.04945" stroke-linecap="round" stroke-linejoin="round"/>
</g>
</svg>
