<svg preserveAspectRatio="none" width="100%" height="100%" overflow="visible" style="display: block;" viewBox="0 0 15.997 15.997" fill="none" xmlns="http://www.w3.org/2000/svg">
<g id="Icon" clip-path="url(#clip0_0_44)">
<path id="Vector" d="M7.99851 14.6639C11.6797 14.6639 14.6639 11.6797 14.6639 7.99851C14.6639 4.3173 11.6797 1.33308 7.99851 1.33308C4.3173 1.33308 1.33308 4.3173 1.33308 7.99851C1.33308 11.6797 4.3173 14.6639 7.99851 14.6639Z" stroke="var(--stroke-0, white)" stroke-opacity="0.5" stroke-width="1.19978" stroke-linecap="round" stroke-linejoin="round"/>
<path id="Vector_2" d="M6.05887 5.99888C6.21558 5.55341 6.52489 5.17777 6.93201 4.9385C7.33914 4.69923 7.81781 4.61177 8.28324 4.6916C8.74868 4.77144 9.17084 5.01342 9.47495 5.37468C9.77907 5.73595 9.94552 6.1932 9.94482 6.66543C9.94482 7.99851 7.94519 8.66505 7.94519 8.66505" stroke="var(--stroke-0, white)" stroke-opacity="0.5" stroke-width="1.19978" stroke-linecap="round" stroke-linejoin="round"/>
<path id="Vector_3" d="M7.99851 11.3312H8.00518" stroke="var(--stroke-0, white)" stroke-opacity="0.5" stroke-width="1.19978" stroke-linecap="round" stroke-linejoin="round"/>
</g>
<defs>
<clipPath id="clip0_0_44">
<rect width="15.997" height="15.997" fill="white"/>
</clipPath>
</defs>
</svg>
