<svg preserveAspectRatio="none" width="100%" height="100%" overflow="visible" style="display: block;" viewBox="0 0 15.997 15.997" fill="none" xmlns="http://www.w3.org/2000/svg">
<g id="Icon" clip-path="url(#clip0_0_75)">
<path id="Vector" d="M7.6819 1.52972C7.71111 1.4707 7.75624 1.42102 7.81218 1.38629C7.86812 1.35156 7.93266 1.33316 7.99851 1.33316C8.06436 1.33316 8.1289 1.35156 8.18484 1.38629C8.24079 1.42102 8.28591 1.4707 8.31512 1.52972L9.85483 4.64847C9.95626 4.85374 10.106 5.03134 10.2912 5.16601C10.4763 5.30068 10.6914 5.38841 10.918 5.42166L14.3613 5.92556C14.4266 5.93502 14.4879 5.96254 14.5383 6.00501C14.5887 6.04749 14.6262 6.10323 14.6466 6.16592C14.667 6.22862 14.6694 6.29577 14.6537 6.35977C14.6379 6.42378 14.6045 6.48209 14.5573 6.52812L12.0671 8.953C11.9029 9.11304 11.78 9.31059 11.709 9.52865C11.6381 9.7467 11.6212 9.97874 11.6598 10.2048L12.2477 13.6308C12.2592 13.696 12.2522 13.7631 12.2274 13.8245C12.2026 13.886 12.161 13.9391 12.1074 13.9781C12.0539 14.017 11.9904 14.0401 11.9244 14.0446C11.8583 14.0492 11.7923 14.0352 11.7338 14.0041L8.65572 12.3857C8.4529 12.2792 8.22725 12.2236 7.99818 12.2236C7.7691 12.2236 7.54345 12.2792 7.34063 12.3857L4.26321 14.0041C4.20477 14.035 4.13883 14.0489 4.07288 14.0442C4.00692 14.0395 3.94361 14.0164 3.89014 13.9775C3.83667 13.9387 3.79518 13.8855 3.7704 13.8242C3.74562 13.7629 3.73854 13.6959 3.74997 13.6308L4.33719 10.2054C4.37598 9.9793 4.35918 9.74712 4.28823 9.52892C4.21728 9.31073 4.09431 9.11307 3.92993 8.953L1.43973 6.52878C1.39214 6.48281 1.35841 6.4244 1.34239 6.3602C1.32637 6.296 1.32871 6.22859 1.34913 6.16565C1.36956 6.10271 1.40725 6.04677 1.45791 6.0042C1.50858 5.96164 1.57018 5.93416 1.6357 5.9249L5.07839 5.42166C5.30518 5.38866 5.52056 5.30105 5.70599 5.16636C5.89142 5.03167 6.04134 4.85394 6.14286 4.64847L7.6819 1.52972Z" stroke="var(--stroke-0, white)" stroke-opacity="0.5" stroke-width="1.19978" stroke-linecap="round" stroke-linejoin="round"/>
</g>
<defs>
<clipPath id="clip0_0_75">
<rect width="15.997" height="15.997" fill="white"/>
</clipPath>
</defs>
</svg>
