<svg preserveAspectRatio="none" width="100%" height="100%" overflow="visible" style="display: block;" viewBox="0 0 15.997 15.997" fill="none" xmlns="http://www.w3.org/2000/svg">
<g id="IconDiscord" clip-path="url(#clip0_0_23)">
<path id="Vector" d="M13.5421 2.91279C12.505 2.43677 11.4105 2.09733 10.2861 1.90298C10.2758 1.90098 10.2652 1.90229 10.2557 1.90673C10.2463 1.91116 10.2385 1.91848 10.2334 1.92764C10.0935 2.17759 9.93748 2.50353 9.82817 2.76082C8.61601 2.57671 7.38301 2.57671 6.17085 2.76082C6.0492 2.47574 5.9119 2.19759 5.75959 1.92764C5.75434 1.91869 5.7465 1.91154 5.7371 1.90713C5.72769 1.90273 5.71718 1.90128 5.70694 1.90298C4.58238 2.09693 3.48784 2.43638 2.45088 2.91279C2.4421 2.91647 2.43465 2.92275 2.42955 2.93079C0.355267 6.02954 -0.213294 9.05165 0.0659875 12.0358C0.0673206 12.0504 0.0759856 12.0644 0.0859837 12.0731C1.29349 12.9677 2.64425 13.6507 4.08057 14.0927C4.0907 14.0956 4.10147 14.0954 4.11147 14.0921C4.12147 14.0888 4.13022 14.0825 4.13656 14.074C4.44451 13.6541 4.71912 13.2109 4.95374 12.745C4.95702 12.7386 4.95891 12.7316 4.95929 12.7245C4.95967 12.7173 4.95854 12.7102 4.95595 12.7035C4.95337 12.6968 4.9494 12.6908 4.94431 12.6857C4.93922 12.6807 4.93312 12.6768 4.92642 12.6743C4.49544 12.5094 4.07822 12.3106 3.67865 12.0798C3.67132 12.0755 3.66516 12.0695 3.66071 12.0623C3.65625 12.0551 3.65364 12.047 3.65312 12.0385C3.65259 12.0301 3.65416 12.0216 3.65768 12.0139C3.6612 12.0062 3.66658 11.9995 3.67332 11.9944C3.75746 11.9315 3.84013 11.8666 3.92127 11.7998C3.92837 11.794 3.93692 11.7904 3.94599 11.7892C3.95505 11.788 3.96426 11.7894 3.97259 11.7931C6.59077 12.9882 9.42491 12.9882 12.0124 11.7931C12.0208 11.7893 12.0302 11.7878 12.0394 11.789C12.0486 11.7902 12.0573 11.7939 12.0644 11.7998C12.1444 11.8651 12.2284 11.9318 12.313 11.9944C12.3197 11.9995 12.325 12.006 12.3286 12.0136C12.3321 12.0212 12.3338 12.0295 12.3334 12.0378C12.333 12.0462 12.3306 12.0543 12.3263 12.0615C12.3221 12.0687 12.3161 12.0747 12.309 12.0791C11.9104 12.3121 11.4928 12.511 11.0606 12.6736C11.0539 12.6762 11.0478 12.6802 11.0427 12.6853C11.0376 12.6904 11.0336 12.6965 11.031 12.7032C11.0285 12.7099 11.0273 12.7171 11.0277 12.7243C11.0281 12.7315 11.03 12.7385 11.0333 12.745C11.2732 13.2102 11.5479 13.6528 11.8498 14.0734C11.856 14.082 11.8647 14.0884 11.8748 14.0917C11.8848 14.0951 11.8957 14.0952 11.9058 14.092C13.3445 13.6514 14.6975 12.9683 15.9064 12.0724C15.9123 12.0683 15.9172 12.0629 15.9209 12.0567C15.9245 12.0505 15.9269 12.0436 15.9277 12.0364C16.261 8.58573 15.3691 5.58829 13.5621 2.93145C13.5579 2.92249 13.5506 2.91538 13.5415 2.91146L13.5421 2.91279ZM5.34567 10.2181C4.55715 10.2181 3.90794 9.4949 3.90794 8.60573C3.90794 7.71723 4.54515 6.99336 5.34567 6.99336C6.15219 6.99336 6.79607 7.72389 6.7834 8.6064C6.7834 9.4949 6.14619 10.2181 5.34567 10.2181ZM10.6613 10.2181C9.87283 10.2181 9.22362 9.4949 9.22362 8.60573C9.22362 7.71723 9.86016 6.99336 10.6613 6.99336C11.4679 6.99336 12.1117 7.72389 12.0991 8.6064C12.0991 9.4949 11.4685 10.2181 10.6613 10.2181Z" fill="var(--fill-0, white)" fill-opacity="0.5"/>
</g>
<defs>
<clipPath id="clip0_0_23">
<rect width="15.997" height="15.997" fill="white"/>
</clipPath>
</defs>
</svg>
