<svg preserveAspectRatio="none" width="100%" height="100%" overflow="visible" style="display: block;" viewBox="0 0 15.997 15.997" fill="none" xmlns="http://www.w3.org/2000/svg">
<g id="IconTelegram" clip-path="url(#clip0_0_21)">
<path id="Vector" d="M7.96118 2.17738e-05C5.84632 0.00989124 3.82145 0.856944 2.3295 2.35589C0.837549 3.85483 -2.30284e-05 5.88365 4.74868e-10 7.99853C4.74872e-10 10.1199 0.842698 12.1543 2.34271 13.6543C3.84272 15.1543 5.87717 15.997 7.99851 15.997C10.1198 15.997 12.1543 15.1543 13.6543 13.6543C15.1543 12.1543 15.997 10.1199 15.997 7.99853C15.997 5.8772 15.1543 3.84274 13.6543 2.34273C12.1543 0.84272 10.1198 2.17738e-05 7.99851 2.17738e-05C7.98607 -7.25792e-06 7.97363 -7.25792e-06 7.96118 2.17738e-05ZM11.2686 4.81513C11.3352 4.81379 11.4825 4.83046 11.5785 4.90844C11.6423 4.96383 11.683 5.04113 11.6925 5.12507C11.7032 5.18706 11.7165 5.32903 11.7058 5.43968C11.5858 6.70477 11.0646 9.77354 10.7993 11.1899C10.6873 11.7898 10.4667 11.9905 10.2528 12.0098C9.78884 12.0531 9.43624 11.7032 8.98633 11.4086C8.28246 10.9467 7.88453 10.6594 7.20133 10.2088C6.41147 9.68888 6.92338 9.40227 7.37329 8.93569C7.49127 8.81305 9.53756 6.95139 9.57755 6.78276C9.58222 6.76143 9.58688 6.68278 9.54022 6.64145C9.49357 6.60013 9.42425 6.61412 9.37426 6.62545C9.3036 6.64145 8.17914 7.38531 6.00088 8.85504C5.68094 9.075 5.39233 9.18165 5.13304 9.17498C4.84776 9.16965 4.29853 9.01434 3.88994 8.8817C3.3887 8.7184 2.99078 8.63241 3.02544 8.3558C3.04343 8.21183 3.24206 8.06452 3.62066 7.91388C5.95223 6.89807 7.5066 6.2282 8.28512 5.90492C10.506 4.98109 10.968 4.82046 11.2686 4.81513Z" fill="var(--fill-0, white)" fill-opacity="0.5"/>
</g>
<defs>
<clipPath id="clip0_0_21">
<rect width="15.997" height="15.997" fill="white"/>
</clipPath>
</defs>
</svg>
