<svg viewBox="0 0 24 24" fill="none" xmlns="http://www.w3.org/2000/svg">
  <path
    fill-rule="evenodd"
    clip-rule="evenodd"
    d="M17.0402 1.90061C17.302 0.704817 19.0054 0.697665 19.2785 1.89202L19.29 1.94781L19.3157 2.05938C19.6304 3.39534 20.7116 4.41519 22.0646 4.65121C23.3118 4.86862 23.3118 6.65944 22.0646 6.87686C21.3996 6.99338 20.7837 7.30345 20.294 7.76828C19.8043 8.2331 19.4625 8.83204 19.3114 9.49014L19.2771 9.63604C19.0054 10.8304 17.3034 10.8232 17.0402 9.62746L17.0131 9.50159C16.8687 8.84056 16.5306 8.23756 16.042 7.76955C15.5534 7.30154 14.9365 6.98976 14.2699 6.874C13.0256 6.65801 13.0256 4.87005 14.2699 4.65407C14.9341 4.53879 15.549 4.22889 16.0369 3.76365C16.5248 3.29841 16.8635 2.69879 17.0102 2.04078L17.0302 1.94638L17.0402 1.90061ZM18.08 12.082C17.3988 12.0673 16.748 11.7972 16.2565 11.3253C16.1496 11.3977 16.0558 11.4877 15.979 11.5914C15.3354 12.4439 14.5817 13.315 13.7293 14.166C13.0828 14.8125 12.4277 15.4004 11.7813 15.9254C11.1348 15.4004 10.4798 14.8125 9.83331 14.166C9.21421 13.5474 8.62706 12.8977 8.07413 12.2193C8.59902 11.5713 9.18828 10.9177 9.83331 10.2711C10.6376 9.46165 11.4979 8.7098 12.4077 8.02116C12.5018 7.95217 12.5847 7.8692 12.6537 7.77513C12.3818 7.52721 12.164 7.22585 12.0139 6.8899C11.8638 6.55395 11.7846 6.19063 11.7813 5.82268C10.3782 4.84001 8.99091 4.11196 7.75233 3.73291C6.41077 3.32239 4.83752 3.21225 3.80633 4.24212C3.13841 4.91153 2.95677 5.82125 3.00826 6.68662C3.05975 7.55342 3.35008 8.50605 3.78916 9.47298C4.23564 10.4358 4.77045 11.3552 5.38673 12.2193C4.7706 13.0824 4.2358 14.0009 3.78916 14.9627C3.35008 15.9297 3.05975 16.8823 3.00826 17.7491C2.95677 18.6159 3.13698 19.5242 3.80633 20.1936C4.47567 20.863 5.3853 21.0432 6.25059 20.9917C7.11587 20.9388 8.06984 20.6499 9.03667 20.2108C9.90911 19.8145 10.8373 19.2739 11.7827 18.613C12.7267 19.2739 13.6535 19.8145 14.5273 20.2108C15.4927 20.6499 16.4467 20.9402 17.3134 20.9917C18.1801 21.0432 19.0869 20.8616 19.7562 20.1922C20.7874 19.1623 20.6773 17.5889 20.2668 16.2472C19.875 14.9685 19.1126 13.5309 18.08 12.082ZM7.12446 5.78406C7.94827 6.0358 8.93084 6.51355 9.99493 7.20585C8.83307 8.19153 7.75392 9.27078 6.76833 10.4328C6.38091 9.84292 6.03767 9.22522 5.74143 8.58472C5.36527 7.75511 5.18078 7.06853 5.14931 6.55789C5.11928 6.04439 5.24514 5.83841 5.3238 5.75974C5.45252 5.63101 5.92735 5.41931 7.12446 5.78406ZM5.74143 15.8524C6.00459 15.2731 6.34927 14.6509 6.76833 14.0044C7.75438 15.1664 8.834 16.2457 9.99636 17.2313C9.40708 17.6192 8.78992 17.9629 8.14993 18.2597C7.3204 18.6359 6.63389 18.8204 6.1233 18.8519C5.60841 18.8819 5.40389 18.7561 5.32523 18.6774C5.24657 18.5987 5.12071 18.3913 5.15074 17.8793C5.18221 17.3686 5.36527 16.682 5.74286 15.8524H5.74143ZM15.4141 18.2597C14.7746 17.9629 14.1579 17.6191 13.5691 17.2313C14.7299 16.2455 15.8081 15.1662 16.7928 14.0044C17.4836 15.07 17.9613 16.0527 18.213 16.8766C18.5792 18.0724 18.3675 18.5487 18.2388 18.6774C18.1587 18.7561 17.9527 18.8819 17.4407 18.8505C16.9287 18.8219 16.2436 18.6359 15.4141 18.2597ZM10.3511 12.2193C10.3511 11.8399 10.5017 11.4761 10.77 11.2079C11.0382 10.9396 11.402 10.7889 11.7813 10.7889C12.1606 10.7889 12.5244 10.9396 12.7926 11.2079C13.0608 11.4761 13.2115 11.8399 13.2115 12.2193C13.2115 12.5986 13.0608 12.9625 12.7926 13.2307C12.5244 13.499 12.1606 13.6497 11.7813 13.6497C11.402 13.6497 11.0382 13.499 10.77 13.2307C10.5017 12.9625 10.3511 12.5986 10.3511 12.2193Z"
    fill="white"
  />
</svg>
