<svg width="80" height="32" viewBox="0 0 80 32" fill="none" xmlns="http://www.w3.org/2000/svg">
<rect width="80" height="32" fill="#1E1E1E"/>
<g id="AI co-pilot">
<rect width="2910" height="3102" transform="translate(-379.806 -820)" fill="#5D5D5D"/>
<g id="Ai copilot 2">
<rect width="394" height="852" transform="translate(-173.806 -726)" fill="black"/>
<g id="Container" clip-path="url(#clip0_206_24)">
<g id="MarketSection">
<g id="Container_2" clip-path="url(#clip1_206_24)">
<g id="Button">
<mask id="path-1-inside-1_206_24" fill="white">
<path d="M-174.015 -22.8898H219.985V55.1838H-174.015V-22.8898Z"/>
</mask>
<path d="M-174.015 55.1838V55.3338H-172.005V55.1838V55.0338H-174.015V55.1838ZM-167.985 55.1838V55.3338H-163.964V55.1838V55.0338H-167.985V55.1838ZM-159.944 55.1838V55.3338H-155.924V55.1838V55.0338H-159.944V55.1838ZM-151.903 55.1838V55.3338H-147.883V55.1838V55.0338H-151.903V55.1838ZM-143.862 55.1838V55.3338H-139.842V55.1838V55.0338H-143.862V55.1838ZM-135.822 55.1838V55.3338H-131.801V55.1838V55.0338H-135.822V55.1838ZM-127.781 55.1838V55.3338H-123.76V55.1838V55.0338H-127.781V55.1838ZM-119.74 55.1838V55.3338H-115.72V55.1838V55.0338H-119.74V55.1838ZM-111.699 55.1838V55.3338H-107.679V55.1838V55.0338H-111.699V55.1838ZM-103.658 55.1838V55.3338H-99.6379V55.1838V55.0338H-103.658V55.1838ZM-95.6175 55.1838V55.3338H-91.5971V55.1838V55.0338H-95.6175V55.1838ZM-87.5767 55.1838V55.3338H-83.5563V55.1838V55.0338H-87.5767V55.1838ZM-79.5358 55.1838V55.3338H-75.5154V55.1838V55.0338H-79.5358V55.1838ZM-71.495 55.1838V55.3338H-67.4746V55.1838V55.0338H-71.495V55.1838ZM-63.4542 55.1838V55.3338H-59.4338V55.1838V55.0338H-63.4542V55.1838ZM-55.4134 55.1838V55.3338H-51.393V55.1838V55.0338H-55.4134V55.1838ZM-47.3726 55.1838V55.3338H-43.3522V55.1838V55.0338H-47.3726V55.1838ZM-39.3318 55.1838V55.3338H-35.3114V55.1838V55.0338H-39.3318V55.1838ZM-31.291 55.1838V55.3338H-27.2706V55.1838V55.0338H-31.291V55.1838ZM-23.2502 55.1838V55.3338H-19.2298V55.1838V55.0338H-23.2502V55.1838ZM-15.2094 55.1838V55.3338H-11.189V55.1838V55.0338H-15.2094V55.1838ZM-7.16856 55.1838V55.3338H-3.14816V55.1838V55.0338H-7.16856V55.1838ZM0.872238 55.1838V55.3338H4.89264V55.1838V55.0338H0.872238V55.1838ZM8.91304 55.1838V55.3338H12.9334V55.1838V55.0338H8.91304V55.1838ZM16.9538 55.1838V55.3338H20.9742V55.1838V55.0338H16.9538V55.1838ZM24.9946 55.1838V55.3338H29.015V55.1838V55.0338H24.9946V55.1838ZM33.0355 55.1838V55.3338H37.0558V55.1838V55.0338H33.0355V55.1838ZM41.0762 55.1838V55.3338H45.0966V55.1838V55.0338H41.0762V55.1838ZM49.1171 55.1838V55.3338H53.1374V55.1838V55.0338H49.1171V55.1838ZM57.1579 55.1838V55.3338H61.1783V55.1838V55.0338H57.1579V55.1838ZM65.1987 55.1838V55.3338H69.2191V55.1838V55.0338H65.1987V55.1838ZM73.2394 55.1838V55.3338H77.2599V55.1838V55.0338H73.2394V55.1838ZM81.2803 55.1838V55.3338H85.3007V55.1838V55.0338H81.2803V55.1838ZM89.3211 55.1838V55.3338H93.3415V55.1838V55.0338H89.3211V55.1838ZM97.3619 55.1838V55.3338H101.382V55.1838V55.0338H97.3619V55.1838ZM105.403 55.1838V55.3338H109.423V55.1838V55.0338H105.403V55.1838ZM113.444 55.1838V55.3338H117.464V55.1838V55.0338H113.444V55.1838ZM121.484 55.1838V55.3338H125.505V55.1838V55.0338H121.484V55.1838ZM129.525 55.1838V55.3338H133.546V55.1838V55.0338H129.525V55.1838ZM137.566 55.1838V55.3338H141.586V55.1838V55.0338H137.566V55.1838ZM145.607 55.1838V55.3338H149.627V55.1838V55.0338H145.607V55.1838ZM153.648 55.1838V55.3338H157.668V55.1838V55.0338H153.648V55.1838ZM161.689 55.1838V55.3338H165.709V55.1838V55.0338H161.689V55.1838ZM169.729 55.1838V55.3338H173.75V55.1838V55.0338H169.729V55.1838ZM177.77 55.1838V55.3338H181.791V55.1838V55.0338H177.77V55.1838ZM185.811 55.1838V55.3338H189.831V55.1838V55.0338H185.811V55.1838ZM193.852 55.1838V55.3338H197.872V55.1838V55.0338H193.852V55.1838ZM201.893 55.1838V55.3338H205.913V55.1838V55.0338H201.893V55.1838ZM209.934 55.1838V55.3338H213.954V55.1838V55.0338H209.934V55.1838ZM217.974 55.1838V55.3338H219.985V55.1838V55.0338H217.974V55.1838ZM-174.015 55.1838V55.4838H-172.005V55.1838V54.8838H-174.015V55.1838ZM-167.985 55.1838V55.4838H-163.964V55.1838V54.8838H-167.985V55.1838ZM-159.944 55.1838V55.4838H-155.924V55.1838V54.8838H-159.944V55.1838ZM-151.903 55.1838V55.4838H-147.883V55.1838V54.8838H-151.903V55.1838ZM-143.862 55.1838V55.4838H-139.842V55.1838V54.8838H-143.862V55.1838ZM-135.822 55.1838V55.4838H-131.801V55.1838V54.8838H-135.822V55.1838ZM-127.781 55.1838V55.4838H-123.76V55.1838V54.8838H-127.781V55.1838ZM-119.74 55.1838V55.4838H-115.72V55.1838V54.8838H-119.74V55.1838ZM-111.699 55.1838V55.4838H-107.679V55.1838V54.8838H-111.699V55.1838ZM-103.658 55.1838V55.4838H-99.6379V55.1838V54.8838H-103.658V55.1838ZM-95.6175 55.1838V55.4838H-91.5971V55.1838V54.8838H-95.6175V55.1838ZM-87.5767 55.1838V55.4838H-83.5563V55.1838V54.8838H-87.5767V55.1838ZM-79.5358 55.1838V55.4838H-75.5154V55.1838V54.8838H-79.5358V55.1838ZM-71.495 55.1838V55.4838H-67.4746V55.1838V54.8838H-71.495V55.1838ZM-63.4542 55.1838V55.4838H-59.4338V55.1838V54.8838H-63.4542V55.1838ZM-55.4134 55.1838V55.4838H-51.393V55.1838V54.8838H-55.4134V55.1838ZM-47.3726 55.1838V55.4838H-43.3522V55.1838V54.8838H-47.3726V55.1838ZM-39.3318 55.1838V55.4838H-35.3114V55.1838V54.8838H-39.3318V55.1838ZM-31.291 55.1838V55.4838H-27.2706V55.1838V54.8838H-31.291V55.1838ZM-23.2502 55.1838V55.4838H-19.2298V55.1838V54.8838H-23.2502V55.1838ZM-15.2094 55.1838V55.4838H-11.189V55.1838V54.8838H-15.2094V55.1838ZM-7.16856 55.1838V55.4838H-3.14816V55.1838V54.8838H-7.16856V55.1838ZM0.872238 55.1838V55.4838H4.89264V55.1838V54.8838H0.872238V55.1838ZM8.91304 55.1838V55.4838H12.9334V55.1838V54.8838H8.91304V55.1838ZM16.9538 55.1838V55.4838H20.9742V55.1838V54.8838H16.9538V55.1838ZM24.9946 55.1838V55.4838H29.015V55.1838V54.8838H24.9946V55.1838ZM33.0355 55.1838V55.4838H37.0558V55.1838V54.8838H33.0355V55.1838ZM41.0762 55.1838V55.4838H45.0966V55.1838V54.8838H41.0762V55.1838ZM49.1171 55.1838V55.4838H53.1374V55.1838V54.8838H49.1171V55.1838ZM57.1579 55.1838V55.4838H61.1783V55.1838V54.8838H57.1579V55.1838ZM65.1987 55.1838V55.4838H69.2191V55.1838V54.8838H65.1987V55.1838ZM73.2394 55.1838V55.4838H77.2599V55.1838V54.8838H73.2394V55.1838ZM81.2803 55.1838V55.4838H85.3007V55.1838V54.8838H81.2803V55.1838ZM89.3211 55.1838V55.4838H93.3415V55.1838V54.8838H89.3211V55.1838ZM97.3619 55.1838V55.4838H101.382V55.1838V54.8838H97.3619V55.1838ZM105.403 55.1838V55.4838H109.423V55.1838V54.8838H105.403V55.1838ZM113.444 55.1838V55.4838H117.464V55.1838V54.8838H113.444V55.1838ZM121.484 55.1838V55.4838H125.505V55.1838V54.8838H121.484V55.1838ZM129.525 55.1838V55.4838H133.546V55.1838V54.8838H129.525V55.1838ZM137.566 55.1838V55.4838H141.586V55.1838V54.8838H137.566V55.1838ZM145.607 55.1838V55.4838H149.627V55.1838V54.8838H145.607V55.1838ZM153.648 55.1838V55.4838H157.668V55.1838V54.8838H153.648V55.1838ZM161.689 55.1838V55.4838H165.709V55.1838V54.8838H161.689V55.1838ZM169.729 55.1838V55.4838H173.75V55.1838V54.8838H169.729V55.1838ZM177.77 55.1838V55.4838H181.791V55.1838V54.8838H177.77V55.1838ZM185.811 55.1838V55.4838H189.831V55.1838V54.8838H185.811V55.1838ZM193.852 55.1838V55.4838H197.872V55.1838V54.8838H193.852V55.1838ZM201.893 55.1838V55.4838H205.913V55.1838V54.8838H201.893V55.1838ZM209.934 55.1838V55.4838H213.954V55.1838V54.8838H209.934V55.1838ZM217.974 55.1838V55.4838H219.985V55.1838V54.8838H217.974V55.1838Z" fill="white" fill-opacity="0.7" mask="url(#path-1-inside-1_206_24)"/>
<g id="Sparkline" clip-path="url(#clip2_206_24)">
<path id="Vector" d="M0 17.4967L2.99944 20.7961L5.8989 19.8963L8.89834 21.9959L11.8978 22.8957L14.7972 26.695L17.7967 26.895L20.6961 29.9944L23.6956 26.4951L26.695 21.8959L29.5945 18.4966L32.5939 18.2966L35.5934 16.7969L38.4928 13.3975L41.4923 12.2977L44.3917 15.5971L47.3912 18.4966L50.3906 14.2973L53.2901 10.2981L56.2895 6.59878L59.289 5.89891L62.1884 8.39844L65.1879 7.69857L68.0873 9.59822L71.0868 5.49898L74.0862 2.39956L76.9857 5.09906L79.9851 1.99963V31.994H0V17.4967Z" fill="url(#paint0_linear_206_24)"/>
<path id="Vector_2" d="M0 17.4967L2.99944 20.7961L5.8989 19.8963L8.89834 21.9959L11.8978 22.8957L14.7972 26.695L17.7967 26.895L20.6961 29.9944L23.6956 26.4951L26.695 21.8959L29.5945 18.4966L32.5939 18.2966L35.5934 16.7969L38.4928 13.3975L41.4923 12.2977L44.3917 15.5971L47.3912 18.4966L50.3906 14.2973L53.2901 10.2981L56.2895 6.59878L59.289 5.89891L62.1884 8.39844L65.1879 7.69857L68.0873 9.59822L71.0868 5.49898L74.0862 2.39956L76.9857 5.09906L79.9851 1.99963" stroke="#B05858" stroke-width="1.39974" stroke-linecap="round" stroke-linejoin="round"/>
</g>
</g>
</g>
</g>
</g>
</g>
</g>
<defs>
<linearGradient id="paint0_linear_206_24" x1="0" y1="1.99963" x2="0" y2="31.994" gradientUnits="userSpaceOnUse">
<stop stop-color="#B05858" stop-opacity="0.18"/>
<stop offset="1" stop-color="#B05858" stop-opacity="0"/>
</linearGradient>
<clipPath id="clip0_206_24">
<rect width="394" height="852" fill="white" transform="translate(-173.806 -726)"/>
</clipPath>
<clipPath id="clip1_206_24">
<rect width="394.418" height="380.368" fill="white" transform="translate(-174.015 -325.184)"/>
</clipPath>
<clipPath id="clip2_206_24">
<rect width="79.9851" height="31.994" fill="white"/>
</clipPath>
</defs>
</svg>
