<svg width="80" height="32" viewBox="0 0 80 32" fill="none" xmlns="http://www.w3.org/2000/svg">
<rect width="80" height="32" fill="#1E1E1E"/>
<g id="AI co-pilot">
<rect width="2910" height="3102" transform="translate(-380.306 -741.927)" fill="#5D5D5D"/>
<g id="Ai copilot 2">
<rect width="394" height="852" transform="translate(-174.306 -647.927)" fill="black"/>
<g id="Container" clip-path="url(#clip0_206_24)">
<g id="MarketSection">
<g id="Container_2" clip-path="url(#clip1_206_24)">
<g id="Button">
<mask id="path-1-inside-1_206_24" fill="white">
<path d="M-174.515 -22.8898H219.485V55.1838H-174.515V-22.8898Z"/>
</mask>
<path d="M-174.515 55.1838V55.3338H-172.505V55.1838V55.0338H-174.515V55.1838ZM-168.485 55.1838V55.3338H-164.464V55.1838V55.0338H-168.485V55.1838ZM-160.444 55.1838V55.3338H-156.424V55.1838V55.0338H-160.444V55.1838ZM-152.403 55.1838V55.3338H-148.383V55.1838V55.0338H-152.403V55.1838ZM-144.362 55.1838V55.3338H-140.342V55.1838V55.0338H-144.362V55.1838ZM-136.322 55.1838V55.3338H-132.301V55.1838V55.0338H-136.322V55.1838ZM-128.281 55.1838V55.3338H-124.26V55.1838V55.0338H-128.281V55.1838ZM-120.24 55.1838V55.3338H-116.22V55.1838V55.0338H-120.24V55.1838ZM-112.199 55.1838V55.3338H-108.179V55.1838V55.0338H-112.199V55.1838ZM-104.158 55.1838V55.3338H-100.138V55.1838V55.0338H-104.158V55.1838ZM-96.1175 55.1838V55.3338H-92.0971V55.1838V55.0338H-96.1175V55.1838ZM-88.0767 55.1838V55.3338H-84.0563V55.1838V55.0338H-88.0767V55.1838ZM-80.0358 55.1838V55.3338H-76.0154V55.1838V55.0338H-80.0358V55.1838ZM-71.995 55.1838V55.3338H-67.9746V55.1838V55.0338H-71.995V55.1838ZM-63.9542 55.1838V55.3338H-59.9338V55.1838V55.0338H-63.9542V55.1838ZM-55.9134 55.1838V55.3338H-51.893V55.1838V55.0338H-55.9134V55.1838ZM-47.8726 55.1838V55.3338H-43.8522V55.1838V55.0338H-47.8726V55.1838ZM-39.8318 55.1838V55.3338H-35.8114V55.1838V55.0338H-39.8318V55.1838ZM-31.791 55.1838V55.3338H-27.7706V55.1838V55.0338H-31.791V55.1838ZM-23.7502 55.1838V55.3338H-19.7298V55.1838V55.0338H-23.7502V55.1838ZM-15.7094 55.1838V55.3338H-11.689V55.1838V55.0338H-15.7094V55.1838ZM-7.66856 55.1838V55.3338H-3.64816V55.1838V55.0338H-7.66856V55.1838ZM0.372238 55.1838V55.3338H4.39264V55.1838V55.0338H0.372238V55.1838ZM8.41304 55.1838V55.3338H12.4334V55.1838V55.0338H8.41304V55.1838ZM16.4538 55.1838V55.3338H20.4742V55.1838V55.0338H16.4538V55.1838ZM24.4946 55.1838V55.3338H28.515V55.1838V55.0338H24.4946V55.1838ZM32.5355 55.1838V55.3338H36.5558V55.1838V55.0338H32.5355V55.1838ZM40.5762 55.1838V55.3338H44.5966V55.1838V55.0338H40.5762V55.1838ZM48.6171 55.1838V55.3338H52.6374V55.1838V55.0338H48.6171V55.1838ZM56.6579 55.1838V55.3338H60.6783V55.1838V55.0338H56.6579V55.1838ZM64.6987 55.1838V55.3338H68.7191V55.1838V55.0338H64.6987V55.1838ZM72.7394 55.1838V55.3338H76.7599V55.1838V55.0338H72.7394V55.1838ZM80.7803 55.1838V55.3338H84.8007V55.1838V55.0338H80.7803V55.1838ZM88.8211 55.1838V55.3338H92.8415V55.1838V55.0338H88.8211V55.1838ZM96.8619 55.1838V55.3338H100.882V55.1838V55.0338H96.8619V55.1838ZM104.903 55.1838V55.3338H108.923V55.1838V55.0338H104.903V55.1838ZM112.944 55.1838V55.3338H116.964V55.1838V55.0338H112.944V55.1838ZM120.984 55.1838V55.3338H125.005V55.1838V55.0338H120.984V55.1838ZM129.025 55.1838V55.3338H133.046V55.1838V55.0338H129.025V55.1838ZM137.066 55.1838V55.3338H141.086V55.1838V55.0338H137.066V55.1838ZM145.107 55.1838V55.3338H149.127V55.1838V55.0338H145.107V55.1838ZM153.148 55.1838V55.3338H157.168V55.1838V55.0338H153.148V55.1838ZM161.189 55.1838V55.3338H165.209V55.1838V55.0338H161.189V55.1838ZM169.229 55.1838V55.3338H173.25V55.1838V55.0338H169.229V55.1838ZM177.27 55.1838V55.3338H181.291V55.1838V55.0338H177.27V55.1838ZM185.311 55.1838V55.3338H189.331V55.1838V55.0338H185.311V55.1838ZM193.352 55.1838V55.3338H197.372V55.1838V55.0338H193.352V55.1838ZM201.393 55.1838V55.3338H205.413V55.1838V55.0338H201.393V55.1838ZM209.434 55.1838V55.3338H213.454V55.1838V55.0338H209.434V55.1838ZM217.474 55.1838V55.3338H219.485V55.1838V55.0338H217.474V55.1838ZM-174.515 55.1838V55.4838H-172.505V55.1838V54.8838H-174.515V55.1838ZM-168.485 55.1838V55.4838H-164.464V55.1838V54.8838H-168.485V55.1838ZM-160.444 55.1838V55.4838H-156.424V55.1838V54.8838H-160.444V55.1838ZM-152.403 55.1838V55.4838H-148.383V55.1838V54.8838H-152.403V55.1838ZM-144.362 55.1838V55.4838H-140.342V55.1838V54.8838H-144.362V55.1838ZM-136.322 55.1838V55.4838H-132.301V55.1838V54.8838H-136.322V55.1838ZM-128.281 55.1838V55.4838H-124.26V55.1838V54.8838H-128.281V55.1838ZM-120.24 55.1838V55.4838H-116.22V55.1838V54.8838H-120.24V55.1838ZM-112.199 55.1838V55.4838H-108.179V55.1838V54.8838H-112.199V55.1838ZM-104.158 55.1838V55.4838H-100.138V55.1838V54.8838H-104.158V55.1838ZM-96.1175 55.1838V55.4838H-92.0971V55.1838V54.8838H-96.1175V55.1838ZM-88.0767 55.1838V55.4838H-84.0563V55.1838V54.8838H-88.0767V55.1838ZM-80.0358 55.1838V55.4838H-76.0154V55.1838V54.8838H-80.0358V55.1838ZM-71.995 55.1838V55.4838H-67.9746V55.1838V54.8838H-71.995V55.1838ZM-63.9542 55.1838V55.4838H-59.9338V55.1838V54.8838H-63.9542V55.1838ZM-55.9134 55.1838V55.4838H-51.893V55.1838V54.8838H-55.9134V55.1838ZM-47.8726 55.1838V55.4838H-43.8522V55.1838V54.8838H-47.8726V55.1838ZM-39.8318 55.1838V55.4838H-35.8114V55.1838V54.8838H-39.8318V55.1838ZM-31.791 55.1838V55.4838H-27.7706V55.1838V54.8838H-31.791V55.1838ZM-23.7502 55.1838V55.4838H-19.7298V55.1838V54.8838H-23.7502V55.1838ZM-15.7094 55.1838V55.4838H-11.689V55.1838V54.8838H-15.7094V55.1838ZM-7.66856 55.1838V55.4838H-3.64816V55.1838V54.8838H-7.66856V55.1838ZM0.372238 55.1838V55.4838H4.39264V55.1838V54.8838H0.372238V55.1838ZM8.41304 55.1838V55.4838H12.4334V55.1838V54.8838H8.41304V55.1838ZM16.4538 55.1838V55.4838H20.4742V55.1838V54.8838H16.4538V55.1838ZM24.4946 55.1838V55.4838H28.515V55.1838V54.8838H24.4946V55.1838ZM32.5355 55.1838V55.4838H36.5558V55.1838V54.8838H32.5355V55.1838ZM40.5762 55.1838V55.4838H44.5966V55.1838V54.8838H40.5762V55.1838ZM48.6171 55.1838V55.4838H52.6374V55.1838V54.8838H48.6171V55.1838ZM56.6579 55.1838V55.4838H60.6783V55.1838V54.8838H56.6579V55.1838ZM64.6987 55.1838V55.4838H68.7191V55.1838V54.8838H64.6987V55.1838ZM72.7394 55.1838V55.4838H76.7599V55.1838V54.8838H72.7394V55.1838ZM80.7803 55.1838V55.4838H84.8007V55.1838V54.8838H80.7803V55.1838ZM88.8211 55.1838V55.4838H92.8415V55.1838V54.8838H88.8211V55.1838ZM96.8619 55.1838V55.4838H100.882V55.1838V54.8838H96.8619V55.1838ZM104.903 55.1838V55.4838H108.923V55.1838V54.8838H104.903V55.1838ZM112.944 55.1838V55.4838H116.964V55.1838V54.8838H112.944V55.1838ZM120.984 55.1838V55.4838H125.005V55.1838V54.8838H120.984V55.1838ZM129.025 55.1838V55.4838H133.046V55.1838V54.8838H129.025V55.1838ZM137.066 55.1838V55.4838H141.086V55.1838V54.8838H137.066V55.1838ZM145.107 55.1838V55.4838H149.127V55.1838V54.8838H145.107V55.1838ZM153.148 55.1838V55.4838H157.168V55.1838V54.8838H153.148V55.1838ZM161.189 55.1838V55.4838H165.209V55.1838V54.8838H161.189V55.1838ZM169.229 55.1838V55.4838H173.25V55.1838V54.8838H169.229V55.1838ZM177.27 55.1838V55.4838H181.291V55.1838V54.8838H177.27V55.1838ZM185.311 55.1838V55.4838H189.331V55.1838V54.8838H185.311V55.1838ZM193.352 55.1838V55.4838H197.372V55.1838V54.8838H193.352V55.1838ZM201.393 55.1838V55.4838H205.413V55.1838V54.8838H201.393V55.1838ZM209.434 55.1838V55.4838H213.454V55.1838V54.8838H209.434V55.1838ZM217.474 55.1838V55.4838H219.485V55.1838V54.8838H217.474V55.1838Z" fill="white" fill-opacity="0.7" mask="url(#path-1-inside-1_206_24)"/>
<g id="Sparkline" clip-path="url(#clip2_206_24)">
<path id="Vector" d="M0 8.89835L2.99944 10.898L5.8989 7.59859L8.89834 4.89909L11.8978 6.79874L14.7972 5.79893L17.7967 9.59822L20.6961 11.7978L23.6956 6.79874L26.695 1.99963L29.5945 6.19885L32.5939 3.69932L35.5934 9.09831L38.4928 8.99833L41.4923 11.0979L44.3917 14.1974L47.3912 12.1977L50.3906 6.89872H53.2901L56.2895 11.9978L59.289 15.3971L62.1884 21.0961L65.1879 18.0966L68.0873 21.7959L71.0868 27.1949L74.0862 29.7945L76.9857 29.9944L79.9851 27.3949V31.994H0V8.89835Z" fill="url(#paint0_linear_206_24)"/>
<path id="Vector_2" d="M0 8.89835L2.99944 10.898L5.8989 7.59859L8.89834 4.89909L11.8978 6.79874L14.7972 5.79893L17.7967 9.59822L20.6961 11.7978L23.6956 6.79874L26.695 1.99963L29.5945 6.19885L32.5939 3.69932L35.5934 9.09831L38.4928 8.99833L41.4923 11.0979L44.3917 14.1974L47.3912 12.1977L50.3906 6.89872H53.2901L56.2895 11.9978L59.289 15.3971L62.1884 21.0961L65.1879 18.0966L68.0873 21.7959L71.0868 27.1949L74.0862 29.7945L76.9857 29.9944L79.9851 27.3949" stroke="#4B9B72" stroke-width="1.39974" stroke-linecap="round" stroke-linejoin="round"/>
</g>
</g>
</g>
</g>
</g>
</g>
</g>
<defs>
<linearGradient id="paint0_linear_206_24" x1="0" y1="1.99963" x2="0" y2="31.994" gradientUnits="userSpaceOnUse">
<stop stop-color="#4B9B72" stop-opacity="0.18"/>
<stop offset="1" stop-color="#4B9B72" stop-opacity="0"/>
</linearGradient>
<clipPath id="clip0_206_24">
<rect width="394" height="852" fill="white" transform="translate(-174.306 -647.927)"/>
</clipPath>
<clipPath id="clip1_206_24">
<rect width="394.418" height="380.368" fill="white" transform="translate(-174.515 -247.11)"/>
</clipPath>
<clipPath id="clip2_206_24">
<rect width="79.9851" height="31.994" fill="white"/>
</clipPath>
</defs>
</svg>
