<svg width="80" height="32" viewBox="0 0 80 32" fill="none" xmlns="http://www.w3.org/2000/svg">
<rect width="80" height="32" fill="#1E1E1E"/>
<g id="AI co-pilot">
<rect width="2910" height="3102" transform="translate(-377.806 -512.706)" fill="#5D5D5D"/>
<g id="Ai copilot 2">
<rect width="394" height="852" transform="translate(-171.806 -418.706)" fill="black"/>
<g id="Container" clip-path="url(#clip0_206_24)">
<g id="MarketSection">
<g id="Container_2" clip-path="url(#clip1_206_24)">
<g id="Button">
<mask id="path-1-inside-1_206_24" fill="white">
<path d="M-172.015 -17.8898H221.985V50.1838H-172.015V-17.8898Z"/>
</mask>
<path d="M-172.015 50.1838V50.3338H-170.005V50.1838V50.0338H-172.015V50.1838ZM-165.985 50.1838V50.3338H-161.964V50.1838V50.0338H-165.985V50.1838ZM-157.944 50.1838V50.3338H-153.924V50.1838V50.0338H-157.944V50.1838ZM-149.903 50.1838V50.3338H-145.883V50.1838V50.0338H-149.903V50.1838ZM-141.862 50.1838V50.3338H-137.842V50.1838V50.0338H-141.862V50.1838ZM-133.822 50.1838V50.3338H-129.801V50.1838V50.0338H-133.822V50.1838ZM-125.781 50.1838V50.3338H-121.76V50.1838V50.0338H-125.781V50.1838ZM-117.74 50.1838V50.3338H-113.72V50.1838V50.0338H-117.74V50.1838ZM-109.699 50.1838V50.3338H-105.679V50.1838V50.0338H-109.699V50.1838ZM-101.658 50.1838V50.3338H-97.6379V50.1838V50.0338H-101.658V50.1838ZM-93.6175 50.1838V50.3338H-89.5971V50.1838V50.0338H-93.6175V50.1838ZM-85.5767 50.1838V50.3338H-81.5563V50.1838V50.0338H-85.5767V50.1838ZM-77.5358 50.1838V50.3338H-73.5154V50.1838V50.0338H-77.5358V50.1838ZM-69.495 50.1838V50.3338H-65.4746V50.1838V50.0338H-69.495V50.1838ZM-61.4542 50.1838V50.3338H-57.4338V50.1838V50.0338H-61.4542V50.1838ZM-53.4134 50.1838V50.3338H-49.393V50.1838V50.0338H-53.4134V50.1838ZM-45.3726 50.1838V50.3338H-41.3522V50.1838V50.0338H-45.3726V50.1838ZM-37.3318 50.1838V50.3338H-33.3114V50.1838V50.0338H-37.3318V50.1838ZM-29.291 50.1838V50.3338H-25.2706V50.1838V50.0338H-29.291V50.1838ZM-21.2502 50.1838V50.3338H-17.2298V50.1838V50.0338H-21.2502V50.1838ZM-13.2094 50.1838V50.3338H-9.18896V50.1838V50.0338H-13.2094V50.1838ZM-5.16856 50.1838V50.3338H-1.14816V50.1838V50.0338H-5.16856V50.1838ZM2.87224 50.1838V50.3338H6.89264V50.1838V50.0338H2.87224V50.1838ZM10.913 50.1838V50.3338H14.9334V50.1838V50.0338H10.913V50.1838ZM18.9538 50.1838V50.3338H22.9742V50.1838V50.0338H18.9538V50.1838ZM26.9946 50.1838V50.3338H31.015V50.1838V50.0338H26.9946V50.1838ZM35.0355 50.1838V50.3338H39.0558V50.1838V50.0338H35.0355V50.1838ZM43.0762 50.1838V50.3338H47.0966V50.1838V50.0338H43.0762V50.1838ZM51.1171 50.1838V50.3338H55.1374V50.1838V50.0338H51.1171V50.1838ZM59.1579 50.1838V50.3338H63.1783V50.1838V50.0338H59.1579V50.1838ZM67.1987 50.1838V50.3338H71.2191V50.1838V50.0338H67.1987V50.1838ZM75.2394 50.1838V50.3338H79.2599V50.1838V50.0338H75.2394V50.1838ZM83.2803 50.1838V50.3338H87.3007V50.1838V50.0338H83.2803V50.1838ZM91.3211 50.1838V50.3338H95.3415V50.1838V50.0338H91.3211V50.1838ZM99.3619 50.1838V50.3338H103.382V50.1838V50.0338H99.3619V50.1838ZM107.403 50.1838V50.3338H111.423V50.1838V50.0338H107.403V50.1838ZM115.444 50.1838V50.3338H119.464V50.1838V50.0338H115.444V50.1838ZM123.484 50.1838V50.3338H127.505V50.1838V50.0338H123.484V50.1838ZM131.525 50.1838V50.3338H135.546V50.1838V50.0338H131.525V50.1838ZM139.566 50.1838V50.3338H143.586V50.1838V50.0338H139.566V50.1838ZM147.607 50.1838V50.3338H151.627V50.1838V50.0338H147.607V50.1838ZM155.648 50.1838V50.3338H159.668V50.1838V50.0338H155.648V50.1838ZM163.689 50.1838V50.3338H167.709V50.1838V50.0338H163.689V50.1838ZM171.729 50.1838V50.3338H175.75V50.1838V50.0338H171.729V50.1838ZM179.77 50.1838V50.3338H183.791V50.1838V50.0338H179.77V50.1838ZM187.811 50.1838V50.3338H191.831V50.1838V50.0338H187.811V50.1838ZM195.852 50.1838V50.3338H199.872V50.1838V50.0338H195.852V50.1838ZM203.893 50.1838V50.3338H207.913V50.1838V50.0338H203.893V50.1838ZM211.934 50.1838V50.3338H215.954V50.1838V50.0338H211.934V50.1838ZM219.974 50.1838V50.3338H221.985V50.1838V50.0338H219.974V50.1838ZM-172.015 50.1838V50.4838H-170.005V50.1838V49.8838H-172.015V50.1838ZM-165.985 50.1838V50.4838H-161.964V50.1838V49.8838H-165.985V50.1838ZM-157.944 50.1838V50.4838H-153.924V50.1838V49.8838H-157.944V50.1838ZM-149.903 50.1838V50.4838H-145.883V50.1838V49.8838H-149.903V50.1838ZM-141.862 50.1838V50.4838H-137.842V50.1838V49.8838H-141.862V50.1838ZM-133.822 50.1838V50.4838H-129.801V50.1838V49.8838H-133.822V50.1838ZM-125.781 50.1838V50.4838H-121.76V50.1838V49.8838H-125.781V50.1838ZM-117.74 50.1838V50.4838H-113.72V50.1838V49.8838H-117.74V50.1838ZM-109.699 50.1838V50.4838H-105.679V50.1838V49.8838H-109.699V50.1838ZM-101.658 50.1838V50.4838H-97.6379V50.1838V49.8838H-101.658V50.1838ZM-93.6175 50.1838V50.4838H-89.5971V50.1838V49.8838H-93.6175V50.1838ZM-85.5767 50.1838V50.4838H-81.5563V50.1838V49.8838H-85.5767V50.1838ZM-77.5358 50.1838V50.4838H-73.5154V50.1838V49.8838H-77.5358V50.1838ZM-69.495 50.1838V50.4838H-65.4746V50.1838V49.8838H-69.495V50.1838ZM-61.4542 50.1838V50.4838H-57.4338V50.1838V49.8838H-61.4542V50.1838ZM-53.4134 50.1838V50.4838H-49.393V50.1838V49.8838H-53.4134V50.1838ZM-45.3726 50.1838V50.4838H-41.3522V50.1838V49.8838H-45.3726V50.1838ZM-37.3318 50.1838V50.4838H-33.3114V50.1838V49.8838H-37.3318V50.1838ZM-29.291 50.1838V50.4838H-25.2706V50.1838V49.8838H-29.291V50.1838ZM-21.2502 50.1838V50.4838H-17.2298V50.1838V49.8838H-21.2502V50.1838ZM-13.2094 50.1838V50.4838H-9.18896V50.1838V49.8838H-13.2094V50.1838ZM-5.16856 50.1838V50.4838H-1.14816V50.1838V49.8838H-5.16856V50.1838ZM2.87224 50.1838V50.4838H6.89264V50.1838V49.8838H2.87224V50.1838ZM10.913 50.1838V50.4838H14.9334V50.1838V49.8838H10.913V50.1838ZM18.9538 50.1838V50.4838H22.9742V50.1838V49.8838H18.9538V50.1838ZM26.9946 50.1838V50.4838H31.015V50.1838V49.8838H26.9946V50.1838ZM35.0355 50.1838V50.4838H39.0558V50.1838V49.8838H35.0355V50.1838ZM43.0762 50.1838V50.4838H47.0966V50.1838V49.8838H43.0762V50.1838ZM51.1171 50.1838V50.4838H55.1374V50.1838V49.8838H51.1171V50.1838ZM59.1579 50.1838V50.4838H63.1783V50.1838V49.8838H59.1579V50.1838ZM67.1987 50.1838V50.4838H71.2191V50.1838V49.8838H67.1987V50.1838ZM75.2394 50.1838V50.4838H79.2599V50.1838V49.8838H75.2394V50.1838ZM83.2803 50.1838V50.4838H87.3007V50.1838V49.8838H83.2803V50.1838ZM91.3211 50.1838V50.4838H95.3415V50.1838V49.8838H91.3211V50.1838ZM99.3619 50.1838V50.4838H103.382V50.1838V49.8838H99.3619V50.1838ZM107.403 50.1838V50.4838H111.423V50.1838V49.8838H107.403V50.1838ZM115.444 50.1838V50.4838H119.464V50.1838V49.8838H115.444V50.1838ZM123.484 50.1838V50.4838H127.505V50.1838V49.8838H123.484V50.1838ZM131.525 50.1838V50.4838H135.546V50.1838V49.8838H131.525V50.1838ZM139.566 50.1838V50.4838H143.586V50.1838V49.8838H139.566V50.1838ZM147.607 50.1838V50.4838H151.627V50.1838V49.8838H147.607V50.1838ZM155.648 50.1838V50.4838H159.668V50.1838V49.8838H155.648V50.1838ZM163.689 50.1838V50.4838H167.709V50.1838V49.8838H163.689V50.1838ZM171.729 50.1838V50.4838H175.75V50.1838V49.8838H171.729V50.1838ZM179.77 50.1838V50.4838H183.791V50.1838V49.8838H179.77V50.1838ZM187.811 50.1838V50.4838H191.831V50.1838V49.8838H187.811V50.1838ZM195.852 50.1838V50.4838H199.872V50.1838V49.8838H195.852V50.1838ZM203.893 50.1838V50.4838H207.913V50.1838V49.8838H203.893V50.1838ZM211.934 50.1838V50.4838H215.954V50.1838V49.8838H211.934V50.1838ZM219.974 50.1838V50.4838H221.985V50.1838V49.8838H219.974V50.1838Z" fill="white" fill-opacity="0.7" mask="url(#path-1-inside-1_206_24)"/>
<g id="Sparkline" clip-path="url(#clip2_206_24)">
<path id="Vector" d="M0 8.89835L2.99944 10.898L5.8989 7.59859L8.89834 4.89909L11.8978 6.79874L14.7972 5.79893L17.7967 9.59822L20.6961 11.7978L23.6956 6.79874L26.695 1.99963L29.5945 6.19885L32.5939 3.69932L35.5934 9.09831L38.4928 8.99833L41.4923 11.0979L44.3917 14.1974L47.3912 12.1977L50.3906 6.89872H53.2901L56.2895 11.9978L59.289 15.3971L62.1884 21.0961L65.1879 18.0966L68.0873 21.7959L71.0868 27.1949L74.0862 29.7945L76.9857 29.9944L79.9851 27.3949V31.994H0V8.89835Z" fill="url(#paint0_linear_206_24)"/>
<path id="Vector_2" d="M0 8.89835L2.99944 10.898L5.8989 7.59859L8.89834 4.89909L11.8978 6.79874L14.7972 5.79893L17.7967 9.59822L20.6961 11.7978L23.6956 6.79874L26.695 1.99963L29.5945 6.19885L32.5939 3.69932L35.5934 9.09831L38.4928 8.99833L41.4923 11.0979L44.3917 14.1974L47.3912 12.1977L50.3906 6.89872H53.2901L56.2895 11.9978L59.289 15.3971L62.1884 21.0961L65.1879 18.0966L68.0873 21.7959L71.0868 27.1949L74.0862 29.7945L76.9857 29.9944L79.9851 27.3949" stroke="#4B9B72" stroke-width="1.39974" stroke-linecap="round" stroke-linejoin="round"/>
</g>
</g>
</g>
</g>
</g>
</g>
</g>
<defs>
<linearGradient id="paint0_linear_206_24" x1="0" y1="1.99963" x2="0" y2="31.994" gradientUnits="userSpaceOnUse">
<stop stop-color="#4B9B72" stop-opacity="0.18"/>
<stop offset="1" stop-color="#4B9B72" stop-opacity="0"/>
</linearGradient>
<clipPath id="clip0_206_24">
<rect width="394" height="852" fill="white" transform="translate(-171.806 -418.706)"/>
</clipPath>
<clipPath id="clip1_206_24">
<rect width="394.418" height="380.368" fill="white" transform="translate(-172.015 -17.8898)"/>
</clipPath>
<clipPath id="clip2_206_24">
<rect width="79.9851" height="31.994" fill="white"/>
</clipPath>
</defs>
</svg>
